<svg xmlns="http://www.w3.org/2000/svg" viewBox="0 0 24 30" fill="none" x="0px" y="0px"><path d="M12.0002 3C11.4479 3 11.0002 3.44772 11.0002 4V13.5824L8.71296 11.2952C8.32244 10.9047 7.68927 10.9047 7.29875 11.2952C6.90823 11.6857 6.90823 12.3189 7.29875 12.7094L11.2457 16.6563C11.429 16.8669 11.6991 17 12.0002 17C12.2743 17 12.5226 16.8898 12.7032 16.7112C12.7233 16.694 12.743 16.6759 12.762 16.6569L16.7095 12.7094C17.1 12.3189 17.1 11.6857 16.7095 11.2952C16.3189 10.9047 15.6858 10.9047 15.2952 11.2952L13.0002 13.5902V4C13.0002 3.44772 12.5525 3 12.0002 3Z" fill="black"/><path d="M3 19C2.44772 19 2 19.4477 2 20C2 20.5523 2.44772 21 3 21H21C21.5523 21 22 20.5523 22 20C22 19.4477 21.5523 19 21 19H3Z" fill="black"/><text x="0" y="39" fill="#000000" font-size="5px" font-weight="bold" font-family="'Helvetica Neue', Helvetica, Arial-Unicode, Arial, Sans-serif">Created by Alex Bickov</text><text x="0" y="44" fill="#000000" font-size="5px" font-weight="bold" font-family="'Helvetica Neue', Helvetica, Arial-Unicode, Arial, Sans-serif">from the Noun Project</text></svg>