<?xml version="1.0" standalone="no"?>
<!DOCTYPE svg PUBLIC "-//W3C//DTD SVG 20010904//EN"
 "http://www.w3.org/TR/2001/REC-SVG-20010904/DTD/svg10.dtd">
<svg version="1.0" xmlns="http://www.w3.org/2000/svg"
 width="842.000000pt" height="842.000000pt" viewBox="0 0 842.000000 842.000000"
 preserveAspectRatio="xMidYMid meet">
<metadata>
Created by potrace 1.14, written by Peter Selinger 2001-2017
</metadata>
<g transform="translate(0.000000,842.000000) scale(0.100000,-0.100000)"
fill="#000000" stroke="none">
<path d="M1620 4205 l0 -3495 1413 0 c875 0 1464 4 1548 10 756 58 1308 271
1694 655 294 293 466 664 526 1140 17 131 17 513 0 635 -43 318 -132 565 -288
805 -82 125 -132 187 -239 296 -46 48 -84 89 -84 91 0 3 23 43 50 89 129 217
226 524 261 829 18 154 15 499 -5 650 -83 626 -352 1081 -830 1401 -329 222
-723 343 -1226 379 -88 6 -674 10 -1482 10 l-1338 0 0 -3495z m2930 2999 c566
-64 981 -288 1237 -665 50 -72 128 -236 162 -337 101 -304 122 -746 49 -1082
-65 -302 -183 -526 -383 -725 -257 -257 -565 -394 -1035 -462 -98 -14 -245
-17 -1007 -20 l-893 -4 -2 -1362 -3 -1362 -287 -3 -288 -2 0 3020 0 3020 1158
0 c980 0 1178 -2 1292 -16z m1543 -3476 c132 -190 209 -397 237 -637 16 -136
8 -506 -14 -620 -54 -286 -148 -499 -300 -678 -302 -358 -799 -556 -1511 -603
-88 -5 -429 -10 -757 -10 l-598 0 0 294 0 294 698 5 c577 3 717 7 812 21 409
58 618 142 791 315 121 121 187 250 230 452 30 141 34 459 6 587 -40 184 -114
322 -240 446 -48 47 -66 71 -56 74 75 25 305 168 416 258 l68 56 75 -79 c42
-43 106 -122 143 -175z m-1297 -283 c220 -42 397 -199 475 -422 29 -82 36
-237 15 -326 -28 -119 -81 -212 -171 -302 -92 -92 -167 -136 -281 -165 -74
-19 -113 -20 -881 -20 l-803 0 0 625 0 625 784 0 c653 0 797 -2 862 -15z"/>
<path d="M2680 5571 l0 -1101 808 0 c485 0 853 4 922 11 418 38 725 182 879
412 120 178 178 434 168 732 -12 343 -87 547 -266 726 -126 126 -268 201 -479
255 -218 55 -249 57 -1174 61 l-858 4 0 -1100z m1887 594 c108 -34 193 -88
272 -170 78 -83 124 -165 151 -271 79 -309 -94 -639 -392 -744 -105 -37 -168
-40 -815 -40 l-633 0 0 625 0 625 669 0 670 0 78 -25z"/>
</g>
</svg>
